<svg width="200" height="200" viewBox="0 0 200 200" fill="none" xmlns="http://www.w3.org/2000/svg">
<g clip-path="url(#clip0_41_260)">
<rect width="200" height="200" rx="30" fill="#FF3D00"/>
<path d="M70.6298 142.425C64.4529 142.425 58.8461 140.715 53.8095 137.294C48.7728 133.873 44.7341 129.216 41.6931 123.324C38.6521 117.432 37.1316 110.733 37.1316 103.225C37.1316 95.7181 38.6521 89.0184 41.6931 83.1265C44.7341 77.2347 48.8679 72.6257 54.0945 69.2996C59.3212 65.9736 65.2131 64.3105 71.7702 64.3105C75.5714 64.3105 79.04 64.8807 82.176 66.0211C85.312 67.0664 88.0679 68.5869 90.4436 70.5825C92.8194 72.5782 94.7675 74.8589 96.288 77.4247C97.9035 79.9905 98.9964 82.7464 99.5666 85.6924L95.7178 84.6945V65.8785H113.393V141H95.5753V123.039L99.7091 122.327C99.0439 124.892 97.8085 127.411 96.0029 129.881C94.2924 132.257 92.1067 134.395 89.4458 136.296C86.88 138.102 83.9816 139.575 80.7505 140.715C77.6145 141.855 74.241 142.425 70.6298 142.425ZM75.4764 126.888C79.5627 126.888 83.1738 125.89 86.3098 123.895C89.4458 121.899 91.8691 119.143 93.5796 115.627C95.3852 112.016 96.288 107.882 96.288 103.225C96.288 98.664 95.3852 94.6252 93.5796 91.1091C91.8691 87.593 89.4458 84.8371 86.3098 82.8415C83.1738 80.8458 79.5627 79.848 75.4764 79.848C71.3901 79.848 67.7789 80.8458 64.6429 82.8415C61.6019 84.8371 59.2262 87.593 57.5156 91.1091C55.8051 94.6252 54.9498 98.664 54.9498 103.225C54.9498 107.882 55.8051 112.016 57.5156 115.627C59.2262 119.143 61.6019 121.899 64.6429 123.895C67.7789 125.89 71.3901 126.888 75.4764 126.888ZM135.716 141V65.8785H153.249V141H135.716ZM144.269 49.9134C140.753 49.9134 137.997 49.0582 136.001 47.3476C134.101 45.5421 133.15 43.0237 133.15 39.7927C133.15 36.7518 134.148 34.281 136.144 32.3804C138.14 30.4797 140.848 29.5294 144.269 29.5294C147.88 29.5294 150.636 30.4322 152.537 32.2378C154.532 33.9484 155.53 36.4667 155.53 39.7927C155.53 42.7387 154.532 45.1619 152.537 47.0625C150.541 48.9631 147.785 49.9134 144.269 49.9134Z" fill="white"/>
</g>
<defs>
<clipPath id="clip0_41_260">
<rect width="200" height="200" rx="30" fill="white"/>
</clipPath>
</defs>
</svg>
